<?xml version="1.0" encoding="UTF-8" standalone="no"?>
<svg
   xmlns:dc="http://purl.org/dc/elements/1.1/"
   xmlns:cc="http://creativecommons.org/ns#"
   xmlns:rdf="http://www.w3.org/1999/02/22-rdf-syntax-ns#"
   xmlns:svg="http://www.w3.org/2000/svg"
   xmlns="http://www.w3.org/2000/svg"
   viewBox="0 0 321.26001 207.87466"
   height="207.87466"
   width="321.26001"
   xml:space="preserve"
   id="svg2"
   version="1.1"><metadata
     id="metadata8"><rdf:RDF><cc:Work
         rdf:about=""><dc:format>image/svg+xml</dc:format><dc:type
           rdf:resource="http://purl.org/dc/dcmitype/StillImage" /></cc:Work></rdf:RDF></metadata><defs
     id="defs6"><clipPath
       id="clipPath22"
       clipPathUnits="userSpaceOnUse"><path
         id="path20"
         d="M 0,0 H 240.945 V 155.906 H 0 Z" /></clipPath></defs><g
     transform="matrix(1.3333333,0,0,-1.3333333,0,207.87467)"
     id="g10"><text
       id="text14"
       style="font-style:italic;font-variant:normal;font-weight:normal;font-stretch:normal;font-size:24px;font-family:'Baskerville Greek';-inkscape-font-specification:BaskervilleGreek-Inclined;writing-mode:lr-tb;fill:#231f20;fill-opacity:1;fill-rule:nonzero;stroke:none"
       transform="matrix(1,0,0,-1,77.1024,62.1622)"><tspan
         id="tspan12"
         y="0"
         x="0 8.7360001 18.312 26.784 33.936001 43.032001 53.688 67.031998 75.407997">Jesteburg</tspan></text>
<g
       id="g16"><g
         clip-path="url(#clipPath22)"
         id="g18"><g
           transform="translate(121.5305,131.1151)"
           id="g24"><path
             id="path26"
             style="fill:#231f20;fill-opacity:1;fill-rule:nonzero;stroke:none"
             d="m 0,0 c -0.938,-1.398 -1.011,-2.467 -1.362,-2.467 -0.127,0 -0.794,1.659 -1.81,2.891 -1.23,1.49 -2.352,2.486 -2.967,1.859 -0.483,-0.492 0.15,-2.814 2.111,-5.256 0.044,-0.054 -1.236,0.159 -2.611,0.023 -1.486,-0.147 -3.082,-0.658 -3.223,-1.185 -0.176,-0.669 1.087,-1.338 3.51,-1.531 0.824,-0.066 1.784,0.103 2.867,0.103 0.245,0 -0.547,-0.845 -1.168,-2.054 -0.721,-1.401 -1.614,-3.629 -0.842,-4.034 1.15,-0.604 3.818,3.378 4.237,4.477 0.056,0.146 0.57,-1.472 1.664,-2.493 1.033,-0.964 2.615,-2.192 3.46,-1.821 0.429,0.187 0.053,2.018 -1.156,3.607 -0.746,0.98 -2.152,1.991 -2.027,2.325 0.115,0.308 1.128,-0.501 3.109,-0.376 1.44,0.091 2.965,0.292 3.583,0.71 1.412,0.96 -1.122,1.683 -3.551,1.867 -1.336,0.1 -2.632,-0.291 -3.236,-0.199 -0.28,0.043 1.077,0.729 1.973,2.297 C 3.47,0.331 3.954,2.157 3.146,2.459 2.338,2.761 0.734,1.098 0,0" /></g><g
           transform="translate(121.5209,131.1151)"
           id="g28"><path
             id="path30"
             style="fill:#231f20;fill-opacity:1;fill-rule:nonzero;stroke:none"
             d="m 0,0 c -0.938,-1.398 -1.011,-2.467 -1.362,-2.467 -0.127,0 -0.794,1.659 -1.81,2.891 -1.23,1.49 -2.352,2.486 -2.967,1.859 -0.483,-0.492 0.15,-2.814 2.111,-5.256 0.044,-0.054 -1.236,0.159 -2.611,0.023 -1.486,-0.147 -3.082,-0.658 -3.223,-1.185 -0.176,-0.669 1.087,-1.338 3.51,-1.531 0.824,-0.066 1.784,0.103 2.867,0.103 0.245,0 -0.547,-0.845 -1.168,-2.054 -0.721,-1.401 -1.614,-3.629 -0.842,-4.034 1.15,-0.604 3.818,3.378 4.237,4.477 0.056,0.146 0.57,-1.472 1.664,-2.493 1.033,-0.964 2.615,-2.192 3.46,-1.821 0.429,0.187 0.053,2.018 -1.156,3.607 -0.746,0.98 -2.152,1.991 -2.027,2.325 0.115,0.308 1.128,-0.501 3.109,-0.376 1.44,0.091 2.965,0.292 3.583,0.71 1.412,0.96 -1.122,1.683 -3.551,1.867 -1.336,0.1 -2.632,-0.291 -3.236,-0.199 -0.28,0.043 1.077,0.729 1.973,2.297 C 3.47,0.331 3.954,2.157 3.146,2.459 2.338,2.761 0.734,1.098 0,0" /></g><g
           transform="translate(120.4448,51.6758)"
           id="g32"><path
             id="path34"
             style="fill:#d91920;fill-opacity:1;fill-rule:nonzero;stroke:none"
             d="m 0,0 c 0.766,0.085 1.314,-6.012 6.711,-8.776 0,0 7.636,6.147 10.723,4.975 0.116,-0.043 0.272,-0.406 -0.243,-0.92 -0.514,-0.512 -4.39,-4.199 -4.739,-10.276 -0.46,-8.032 -0.153,-9.788 -7.679,-12.25 -1.33,-0.434 -1.315,-0.633 -1.315,-2.125 0,0 -0.043,-0.813 1.432,-0.96 1.474,-0.147 5.571,0.06 6.072,-0.442 0.503,-0.502 0.521,-1.487 0.384,-2.651 -0.193,-1.613 -8.574,-1.261 -11.346,-1.261 -2.764,0 -10.896,-0.642 -11.31,1.042 -0.285,1.15 -0.118,2.439 0.38,2.938 0.5,0.501 4.585,0.296 6.055,0.439 1.468,0.149 1.425,0.96 1.425,0.96 0,1.49 0.013,1.687 -1.309,2.121 -7.502,2.457 -7.199,4.207 -7.655,12.222 -0.346,6.066 -4.212,9.74 -4.723,10.254 -0.512,0.513 -0.359,0.875 -0.242,0.918 3.076,1.167 10.688,-4.963 10.688,-4.963 C -1.313,-5.998 -0.778,0 0,0" /></g></g></g><text
       id="text38"
       style="font-variant:normal;font-weight:normal;font-stretch:normal;font-size:24px;font-family:'Baskerville Greek';-inkscape-font-specification:BaskervilleGreek-Upright;writing-mode:lr-tb;fill:#231f20;fill-opacity:1;fill-rule:nonzero;stroke:none"
       transform="matrix(1,0,0,-1,51.9931,90.5641)"><tspan
         id="tspan36"
         y="0"
         x="0 20.856001 40.608002 55.271999 60.504002 79.176003 85.848 103.08 123.552">HOF &amp; GUT</tspan></text>
</g></svg>