<?xml version="1.0" encoding="UTF-8"?>
<svg id="Ebene_1" data-name="Ebene 1" xmlns="http://www.w3.org/2000/svg" xmlns:xlink="http://www.w3.org/1999/xlink" viewBox="0 0 225.1 329.5">
  <defs>
    <style>
      .cls-1 {
        fill: #fff;
        stroke: #000;
        stroke-miterlimit: 10;
        stroke-width: .5px;
      }

      .cls-2 {
        fill: none;
      }

      .cls-2, .cls-3, .cls-4 {
        stroke-width: 0px;
      }

      .cls-5 {
        filter: url(#drop-shadow-1);
      }

      .cls-6 {
        clip-path: url(#clippath-1);
      }

      .cls-7 {
        clip-path: url(#clippath);
      }

      .cls-3 {
        fill: #d20a11;
      }

      .cls-4 {
        fill: #1d1d1b;
      }
    </style>
    <filter id="drop-shadow-1">
      <feOffset dx="1" dy="1"/>
      <feGaussianBlur result="blur" stdDeviation="2"/>
      <feFlood flood-color="#000" flood-opacity="1"/>
      <feComposite in2="blur" operator="in"/>
      <feComposite in="SourceGraphic"/>
    </filter>
    <clipPath id="clippath">
      <rect class="cls-2" y="62.19" width="225.1" height="152.93"/>
    </clipPath>
    <clipPath id="clippath-1">
      <rect class="cls-2" y="62.19" width="225.1" height="152.93"/>
    </clipPath>
  </defs>
  <g id="Banner" class="cls-5">
    <path class="cls-1" d="m8.22.25v322.94c0,4.54,3.17,7.46,5.84,5.38l96.64-75.62c1.16-.91,2.54-.9,3.69,0l95.38,75.54c2.66,2.11,5.85-.81,5.85-5.36V.25H8.22Z"/>
  </g>
  <g id="Ebene_1-2" data-name="Ebene 1">
    <g class="cls-7">
      <g class="cls-6">
        <g>
          <path class="cls-4" d="m150.04,145.94c0,.6-.59,5.11-2.82,5.11-.96,0-1.41-.6-1.41-1.8,0-.83.82-5.11,2.74-5.11,1.26,0,1.48.83,1.48,1.8m-4.52,7.66c-.67-.15-.96-.38-.96-.98,0-.38.3-1.05,1.63-1.05h.82c3.33-.15,4.45-3.23,4.45-5.03,0-.45-.07-.9-.3-1.35.44-.3.82-.68,1.11-.68s.3.23.3.68c0,.38.3.68.67.68.44,0,.74-.38.74-.83.07-.6-.37-1.2-.96-1.28h-.3c-.74.08-1.41.38-1.93.9-.52-.75-1.48-1.2-2.37-1.13-2.15,0-4.3,2.63-4.3,4.81,0,1.5.74,2.1,1.56,2.7-1.48.15-2.67.98-2.67,2.18,0,2.03,3.33,2.33,4.67,2.55s2.22.53,2.22,1.8c0,1.88-2,2.48-3.48,2.48s-3.26-.75-3.26-2.63c0-.75.37-1.35,1.04-1.65-.22-.15-.44-.3-.74-.3-.96.08-1.7.83-1.63,1.8v.08c0,2.18,2.67,3.15,4.59,3.15,2.59,0,4.67-1.13,4.67-3.68,0-1.73-1.04-2.63-2.59-2.85l-2.96-.38h-.02Zm-8,.53l1.56-4.73c.37-1.05.74-2.1,1.26-3.08.52-1.05,1.04-1.95,1.63-1.95.22,0,.22.15.22.53,0,.45.37.75.82.68h0c.44,0,.82-.45.82-.9,0-.68-.59-1.13-1.19-1.13h0c-1.85,0-3.04,3.3-3.41,4.43h-.07c.07-.45.22-1.95.22-2.4,0-1.95-1.11-2.1-1.33-2.1-1.26,0-2.15,1.88-2.82,3.15-.07.15-.15.3-.15.45s.07.23.15.23.15,0,.22-.08c.3-.53,1.04-1.95,1.26-2.25s.52-.68.82-.68c.44,0,.44.9.44,1.28-.07,1.65-.37,3.3-.89,4.88l-1.04,3.68h1.48Zm-11.86-10.52c-1.93,0-2.74,3.23-2.74,3.53,0,.15.07.23.15.23s.15-.08.22-.3c.59-1.8,1.19-2.7,1.85-2.7.3,0,.44.23.44.6,0,.68-1.48,5.71-1.48,7.21-.07,1.13.74,2.18,1.93,2.25h.15c1.78,0,3.04-2.48,3.7-3.83l.07.08c-.15.6-.22,1.2-.22,1.8,0,1.13.52,1.95,1.63,1.95,1.93,0,2.74-3.23,2.74-3.53,0-.08-.07-.23-.15-.23h0c-.15,0-.22.08-.3.3-.52,1.8-1.33,2.7-1.78,2.7s-.59-.3-.59-1.05c.07-.9.15-1.88.37-2.78l1.11-5.56c0-.15.07-.23.07-.38,0-.08-.07-.15-.22-.15h-1.11c-.15,0-.22.08-.3.3l-.82,3.46c-.67,2.78-2.3,6.16-3.85,6.16-.44.08-.82-.23-.89-.68v-.23c0-1.2,1.48-6.31,1.48-7.44s-.37-1.8-1.48-1.73m-8.45-2.93c.22-1.05.59-2.78.59-3s-.07-.23-.3-.23c-.37,0-1.93.23-2.96.23-.22,0-.37.08-.37.15s.15.23.59.3c.82.08.96.3.96.6-.07.68-.22,1.28-.37,1.95l-1.7,8.41c-.22.83-.37,1.73-.44,2.63-.07,1.43.96,2.63,2.37,2.7h.44c2.82,0,5.48-4.58,5.48-7.59,0-1.58-.74-3.3-2.74-3.3-1.33,0-2.15,1.2-2.89,2.48h-.07s1.41-5.33,1.41-5.33Zm-2.37,11.34c0-1.43,1.63-7.89,3.85-7.89.82,0,1.26.75,1.26,1.8,0,2.4-1.63,8.04-3.78,8.04-.96,0-1.33-.83-1.33-1.95m-4-7.14c0,1.28-1.41,3.61-4.3,4.81,1.19-4.13,2.52-5.71,3.56-5.71.44,0,.82.3.74.9m-6.37,6.76c0,1.65.89,2.78,2.67,2.78,2.22,0,3.85-3.08,3.85-3.23s-.07-.23-.15-.23-.15.08-.3.23c-1.26,1.88-2.3,2.7-3.33,2.7-.74,0-1.19-.53-1.19-1.5.07-.75.22-1.5.44-2.18,3.93-1.5,5.63-3.3,5.63-4.88.07-.9-.67-1.65-1.56-1.73h-.15c-2.89,0-5.93,4.88-5.93,8.04m-6.22-1.28c-.22.83-.37,1.65-.37,2.55-.07.75.44,1.5,1.19,1.58h.37c.96,0,1.48-.45,2.15-1.43.37-.68.67-1.35.96-2.1,0-.15,0-.23-.22-.23s-.37.38-.44.53c-.3.68-1.11,2.63-1.93,2.63-.37,0-.59-.23-.59-.75.07-.83.22-1.58.44-2.33l1.48-5.93h1.63c.3,0,.37-.08.37-.3s-.07-.38-.3-.38h-1.63l.67-2.48c.07-.23.07-.38.15-.6,0-.45-.44-.53-.82-.53s-.59.08-.67.38l-.89,3.23h-1.41c-.3,0-.44.08-.44.3s.15.3.3.3h1.41l-1.41,5.56h0Zm-9.34,2.1c0,1.28,1.04,2.03,2.67,2.03,1.78.15,3.33-1.13,3.48-2.93v-.38c0-.83-.22-1.35-1.19-2.7-1.26-1.73-1.48-2.33-1.48-2.85,0-.83.59-1.5,1.41-1.58h.22c.74,0,1.04.3,1.04.83s.15.83.59.83.59-.23.59-.68c0-.83-.89-1.43-2-1.43-1.56-.15-2.89,1.05-3.04,2.55v.23c0,.9.15,1.5,1.63,3.46.89,1.28,1.04,1.65,1.04,2.25-.07,1.05-.96,1.88-2,1.8h-.07c-.89,0-1.56-.38-1.56-1.05,0-.23.07-.45.07-.68,0-.38-.3-.68-.67-.68h0c-.52.08-.74.38-.74.98m-1.56-7.59c0,1.28-1.41,3.61-4.3,4.81,1.19-4.13,2.59-5.71,3.63-5.71.3.08.67.38.67.9m-6.45,6.76c0,1.65.89,2.78,2.67,2.78,2.22,0,3.85-3.08,3.85-3.23s-.07-.23-.15-.23-.15.08-.3.23c-1.26,1.88-2.3,2.7-3.33,2.7-.74,0-1.19-.53-1.19-1.5.07-.75.22-1.5.44-2.18,3.93-1.5,5.63-3.3,5.63-4.88.07-.9-.59-1.65-1.48-1.73h-.15c-2.96,0-6,4.88-6,8.04m-5.63,4.51c-.59,2.93-1.41,4.06-2.52,4.06-.59,0-1.11-.15-1.11-.83,0-.9-.3-1.35-.89-1.35s-.89.45-.89,1.05c0,.75.67,1.65,2.67,1.65s4.15-.98,5.19-6.01l2.89-14.2c.22-1.05.74-1.65,1.78-1.65.22,0,.3-.08.3-.23s-.22-.23-.44-.23c-.89,0-1.85.08-2.74.08s-1.85-.08-2.74-.08c-.3,0-.44.08-.44.23s.15.23.37.23c1.33,0,1.63.38,1.63.9-.07.68-.15,1.35-.3,1.95l-2.74,14.42h-.02Z"/>
          <path class="cls-4" d="m113.51,86.53c-.89,1.35-.96,2.4-1.26,2.4-.15,0-.74-1.65-1.7-2.85-1.19-1.5-2.22-2.4-2.74-1.8-.44.45.15,2.78,2,5.18-.82-.08-1.63-.08-2.45,0-1.41.15-2.89.68-3.04,1.13-.15.68,1.04,1.35,3.26,1.5.74.08,1.63-.08,2.67-.08.22,0-.52.83-1.11,2.03-.67,1.35-1.48,3.53-.82,3.98,1.04.6,3.56-3.3,3.93-4.36.07-.15.52,1.43,1.56,2.4s2.45,2.18,3.26,1.8c.37-.15.07-1.95-1.11-3.53-.67-.98-2-1.95-1.93-2.25s1.04.53,2.89.38c1.33-.08,2.74-.3,3.33-.68,1.33-.9-1.04-1.65-3.33-1.8-1.26-.08-2.45.3-3.04.23-.3,0,.96-.75,1.85-2.25s1.33-3.38.52-3.61-2,1.13-2.74,2.18"/>
          <path class="cls-4" d="m113.51,86.53c-.89,1.35-.96,2.4-1.26,2.4-.15,0-.74-1.65-1.7-2.85-1.19-1.5-2.22-2.4-2.74-1.8-.44.45.15,2.78,2,5.18-.82-.08-1.63-.08-2.45,0-1.41.15-2.89.68-3.04,1.13-.15.68,1.04,1.35,3.26,1.5.74.08,1.63-.08,2.67-.08.22,0-.52.83-1.11,2.03-.67,1.35-1.48,3.53-.82,3.98,1.04.6,3.56-3.3,3.93-4.36.07-.15.52,1.43,1.56,2.4s2.45,2.18,3.26,1.8c.37-.15.07-1.95-1.11-3.53-.67-.98-2-1.95-1.93-2.25s1.04.53,2.89.38c1.33-.08,2.74-.3,3.33-.68,1.33-.9-1.04-1.65-3.33-1.8-1.26-.08-2.45.3-3.04.23-.22,0,1.04-.75,1.85-2.25s1.33-3.38.52-3.61-2.07,1.13-2.74,2.18"/>
          <path class="cls-3" d="m112.48,164.42c.74-.08,1.26,5.86,6.3,8.56,0,0,7.11-6.01,10-4.88.07.08.22.38-.22.9-2.67,2.7-4.22,6.31-4.45,10.06-.44,7.89-.15,9.61-7.19,12.02-1.26.45-1.26.6-1.26,2.1,0,0-.07.83,1.33.98s5.19-.08,5.71.45.52,1.5.37,2.63c-.15,1.58-8,1.2-10.6,1.2s-10.15.6-10.6-1.05c-.22-1.13-.07-2.4.37-2.85s4.3-.3,5.63-.45,1.33-.9,1.33-.9c0-1.43,0-1.65-1.26-2.1-6.96-2.4-6.74-4.13-7.19-12.02-.22-3.76-1.78-7.36-4.37-10.06-.52-.53-.37-.83-.22-.9,2.89-1.13,10,4.88,10,4.88,5.11-2.7,5.63-8.56,6.3-8.56"/>
          <path class="cls-4" d="m171.53,123.33c0,1.8-.44,2.48-1.41,2.48-.74,0-.82.08-.82.23s.15.23.44.23c.74,0,1.93-.08,2.96-.08s2.22.08,2.96.08c.3,0,.44-.08.44-.23s-.07-.23-.82-.23c-.96,0-1.41-.68-1.41-2.48v-11.79c0-.38.15-.45,3.48-.45,1.56,0,2.82.3,2.89,2.03.07.75.15.83.3.83s.15-.08.15-.3v-2.85c0-.23-.07-.38-.37-.38h-15.34c-.3,0-.37.15-.37.38v2.85c0,.23.07.3.15.3s.3-.08.3-.83c.07-1.73,1.33-2.03,2.89-2.03,3.33,0,3.48.08,3.48.45l.07,11.79h.03Zm-11.26-9.84c0-1.13.07-2.48,1.48-2.48.67,0,.82-.08.82-.3s-.15-.3-.3-.3c-.59,0-1.04.08-2.15.08s-1.7-.08-2.22-.08c-.22,0-.37.08-.37.3s.22.23.89.3c1.41.08,1.41,1.35,1.41,2.48v6.23c0,2.7-.3,6.08-4.74,6.08-2.3,0-4.37-.9-4.37-4.36v-8.04c0-1.8.52-2.48,1.48-2.48.74,0,.82-.08.82-.23s-.15-.23-.44-.23c-.74,0-1.93.08-2.96.08s-2.22-.08-2.96-.08c-.3,0-.44.08-.44.23s.07.23.82.23c1.04,0,1.41.68,1.41,2.48v8.11c0,3.53,2.3,5.11,5.78,5.11,4.82,0,6.22-2.55,6.22-6.16l-.15-6.99-.03.02Zm-30.53,5.26c0,5.18,3.41,7.96,7.63,7.96,1.26,0,2.52-.3,3.63-.9.96-.68,2.07-1.05,3.19-1.2-.07-1.13-.07-1.88-.07-2.18,0-1.13.07-2.1,1.19-2.18.3,0,.44-.08.44-.3s-.07-.23-.37-.23c-.82,0-1.7.08-2.52.08-.96,0-1.93-.08-2.89-.08-.15,0-.3,0-.3.3s.07.23.67.3c1.33.08,1.41.9,1.41,2.25,0,3-2.22,3.61-4.08,3.61-2.07,0-5.04-1.43-5.04-7.59,0-4.66,1.41-8.04,5.56-8.04,3.26,0,3.93,2.18,4.37,3.61.22.68.22.83.44.83s.22-.15.22-.68c0-1.13.07-2.85.07-3.46,0-.3-.07-.45-.22-.45s-.3.38-.37.6c0,.15-.15.23-.3.23s-.22-.08-.37-.15c-1.33-.75-2.82-1.13-4.3-1.13-4.89.08-8,3.91-8,8.79m-19.86-5.93c-.15-1.13.67-2.1,1.78-2.25h.15c1.04,0,1.93.98,1.93,2.85,0,1.58-.74,3.08-2.07,3.98-1.33-1.95-1.78-3.38-1.78-4.58m-1.56,9.76c0-1.35.74-2.4,2.07-3.3,1.11,1.58,2.3,3.15,3.56,4.66-.74.98-1.85,1.65-3.11,1.73-1.48-.08-2.52-1.58-2.52-3.08m-1.93,1.05c0,1.73,1.33,3.08,3.41,3.08,1.78-.08,3.48-.98,4.67-2.33,1.63,1.95,3.04,2.33,4,2.33,2.07,0,3.26-1.65,3.26-2.03,0-.23-.15-.3-.22-.3-.52,0-.74.98-1.85.98-.74,0-1.93-.75-3.78-2.85,1.78-2.25,2.22-4.73,3.11-4.73.22,0,.37.15.44.38v.08c0,.15-.07.23-.07.53,0,.53.44.9.96.9.67,0,1.19-.53,1.19-1.2v-.08c.07-.83-.52-1.58-1.41-1.73h-.3c-1.04,0-1.56.3-2.45,2.1-.52,1.13-1.19,2.25-1.93,3.23-1.19-1.28-2.22-2.7-3.26-4.06,2.74-2.18,3.11-3.46,3.11-4.88.07-1.65-1.19-2.93-2.82-3h-.22c-1.7,0-3.63,1.35-3.63,4.36.15,1.58.67,3.08,1.63,4.28-3.19,2.25-3.85,3.3-3.85,4.96m-16.45-.3c0,1.8-.44,2.48-1.41,2.48-.74,0-.82.08-.82.23s.15.23.44.23c.74,0,1.93-.08,2.96-.08s2.22.08,3.11.08c.3,0,.44-.08.44-.23s-.07-.23-.82-.23c-1.19,0-1.63-.68-1.63-2.48v-4.73h1.33c1.11-.15,2.15.68,2.3,1.8v.15c.15.68.22.83.37.83s.22-.08.22-.3c0-.98-.07-1.95-.07-2.93,0-.75.07-1.73.07-2.7,0-.15-.07-.3-.3-.3s-.3.15-.3.75c-.15,1.73-.96,2.1-3.63,2.1v-5.11c0-1.58,0-1.88.89-1.88h1.63c1.7,0,2.52.3,3.19.75.52.45.82,1.05.96,1.73,0,.15.15.38.3.38s.3,0,.3-.3c0-.6-.22-2.25-.3-2.78,0-.23-.15-.38-.44-.38-2.52,0-5.04.08-7.56.08-1.11,0-2.3-.08-3.04-.08-.3,0-.44.08-.44.23s.07.23.82.23c.96,0,1.41.68,1.41,2.48v9.99h.02Zm-18.15-4.96c0-3.76,1.78-7.81,5.56-7.81s5.56,3.98,5.56,7.81-1.78,7.81-5.56,7.81-5.56-4.06-5.56-7.81m-2.74,0c0,4.88,3.48,8.34,8.37,8.34s8.37-3.46,8.37-8.34-3.48-8.34-8.37-8.34-8.45,3.46-8.37,8.34m-6.45,4.96c0,1.8-.44,2.48-1.41,2.48-.74,0-.82.08-.82.23s.15.23.44.23c.74,0,1.93-.08,2.96-.08s2.22.08,2.96.08c.3,0,.44-.08.44-.23s-.07-.23-.82-.23c-.96,0-1.41-.68-1.41-2.48v-9.91c0-1.8.44-2.48,1.41-2.48.74,0,.82-.08.82-.23s-.15-.3-.44-.3c-.74,0-1.93.08-2.96.08s-2.22-.08-2.96-.08c-.3,0-.44.08-.44.23s.07.23.82.23c.96,0,1.41.68,1.41,2.48v4.28h-8.22v-4.21c0-1.8.44-2.48,1.41-2.48.74,0,.82-.08.82-.23s-.15-.3-.44-.3c-.74,0-1.93.08-2.96.08s-2.22-.08-2.96-.08c-.3,0-.44.08-.44.23s.07.23.82.23c.96,0,1.41.68,1.41,2.48v9.91c0,1.8-.44,2.48-1.41,2.48-.74,0-.82.08-.82.23s.15.23.44.23c.74,0,1.93-.08,2.96-.08s2.22.08,2.96.08c.3,0,.44-.08.44-.23s-.07-.15-.82-.15c-.96,0-1.41-.68-1.41-2.48v-4.88h8.22v4.88h0Z"/>
        </g>
      </g>
    </g>
  </g>
</svg>