<svg id="Ebene_1" data-name="Ebene 1" xmlns="http://www.w3.org/2000/svg" xmlns:xlink="http://www.w3.org/1999/xlink" viewBox="0 0 176.6 152.41"><defs><style>.cls-1{fill:none;}.cls-2{clip-path:url(#clip-path);}.cls-3{fill:#1d1d1b;}.cls-4{fill:#d20a11;}</style><clipPath id="clip-path" transform="translate(-17.87 -50.7)"><rect className="cls-1" x="-49.47" y="21.59" width="303.81" height="203.55"/></clipPath></defs><g class="cls-2"><g class="cls-2"><path class="cls-3" d="M153.05,133.14c0,.76-.81,6.77-3.75,6.77-1.3,0-1.94-.84-1.94-2.41,0-1.13,1.12-6.83,3.67-6.83,1.72,0,2,1.16,2,2.47M147,143.33c-.85-.16-1.27-.54-1.27-1.29,0-.47.42-1.38,2.21-1.41l1.12,0c4.54-.22,6-4.29,6-6.7a5.1,5.1,0,0,0-.36-1.79c.6-.44,1.15-.88,1.48-.88s.39.32.45.91a1,1,0,0,0,.94.94,1.06,1.06,0,0,0,1-1.1,1.55,1.55,0,0,0-1.69-1.75,3.93,3.93,0,0,0-2.55,1.22,3.45,3.45,0,0,0-3.23-1.47c-2.91,0-5.75,3.51-5.75,6.45,0,2,1,2.79,2.09,3.61-2,.22-3.55,1.34-3.55,2.94,0,2.67,4.48,3.14,6.27,3.39s3,.72,3,2.41c0,2.54-2.69,3.29-4.69,3.29s-4.41-1-4.41-3.48a2.4,2.4,0,0,1,1.42-2.22,1.47,1.47,0,0,0-1-.35,2.32,2.32,0,0,0-2.21,2.51c0,2.85,3.57,4.23,6.23,4.23,3.54,0,6.33-1.51,6.33-4.89,0-2.29-1.45-3.48-3.51-3.82Zm-10.83.65,2.12-6.32a30.25,30.25,0,0,1,1.66-4.11c.67-1.35,1.45-2.57,2.18-2.57.27,0,.3.25.3.72a1,1,0,0,0,1.06.94,1.18,1.18,0,0,0,1.09-1.19,1.56,1.56,0,0,0-1.69-1.47c-2.46,0-4.12,4.45-4.63,5.92h-.06c.06-.56.3-2.57.3-3.16,0-2.6-1.52-2.76-1.76-2.76-1.66,0-2.9,2.47-3.78,4.2a1.56,1.56,0,0,0-.21.59c0,.16.12.28.18.28a.3.3,0,0,0,.3-.15c.4-.69,1.39-2.63,1.7-3s.72-.91,1.15-.91c.6,0,.6,1.19.6,1.66a25.92,25.92,0,0,1-1.18,6.49L134.08,144Zm-16-14c-2.57,0-3.72,4.32-3.72,4.73,0,.16.06.28.21.28s.24-.15.33-.41c.79-2.38,1.64-3.6,2.48-3.6.37,0,.64.28.64.82,0,.87-2,7.61-2,9.62a2.78,2.78,0,0,0,2.79,3c2.45,0,4.08-3.32,5-5.07l.06.06a14.05,14.05,0,0,0-.33,2.38c0,1.51.69,2.63,2.18,2.63,2.57,0,3.72-4.32,3.72-4.73a.25.25,0,0,0-.24-.28c-.19,0-.31.13-.4.41-.69,2.44-1.75,3.6-2.36,3.6s-.75-.41-.75-1.44a22,22,0,0,1,.48-3.67l1.54-7.42a3.82,3.82,0,0,0,.09-.5c0-.13-.12-.19-.3-.19h-1.51c-.18,0-.33.09-.39.44l-1.06,4.6c-.85,3.7-3.06,8.18-5.21,8.18a1.05,1.05,0,0,1-1.18-1.16c0-1.63,2-8.36,2-9.93s-.61-2.38-2.09-2.38m-11.38-3.82c.3-1.38.85-3.73.85-4s-.12-.35-.36-.35c-.46,0-2.55.31-4,.31-.33,0-.48.07-.48.25s.15.32.81.38c1.09.09,1.34.38,1.34.85a22.15,22.15,0,0,1-.46,2.57l-2.33,11.18a20.37,20.37,0,0,0-.57,3.48,3.41,3.41,0,0,0,3.75,3.63c3.81,0,7.38-6.11,7.38-10.12,0-2.06-1-4.35-3.66-4.35-1.84,0-2.9,1.6-3.87,3.26h-.06Zm-3.18,15.1c0-1.85,2.15-10.5,5.21-10.5,1.06,0,1.66,1,1.66,2.38,0,3.17-2.15,10.72-5.11,10.72-1.3,0-1.76-1.1-1.76-2.6m-5.38-9.5c0,1.67-1.88,4.8-5.81,6.43,1.57-5.52,3.45-7.62,4.84-7.62.54,0,1,.41,1,1.19m-8.69,9c0,2.19,1.18,3.72,3.57,3.72,3,0,5.24-4.07,5.24-4.32s-.09-.31-.24-.31-.22.09-.37.31c-1.72,2.51-3.05,3.64-4.48,3.64-1,0-1.57-.73-1.57-2a11.35,11.35,0,0,1,.58-2.94c5.29-2,7.56-4.42,7.56-6.55A2.17,2.17,0,0,0,99.61,130c-3.93,0-8,6.48-8,10.75M83.21,139a20.07,20.07,0,0,0-.54,3.35,1.9,1.9,0,0,0,2.11,2.13c1.34,0,2-.62,2.88-1.94a18,18,0,0,0,1.3-2.82c0-.19,0-.34-.27-.34s-.46.47-.55.69c-.39.87-1.48,3.54-2.63,3.54-.48,0-.85-.32-.85-1a15.48,15.48,0,0,1,.61-3.13l2-7.86h2.2c.4,0,.52-.13.52-.35s-.15-.44-.39-.44H87.39l.87-3.32a2.77,2.77,0,0,0,.16-.81c0-.63-.64-.69-1.12-.69s-.79.09-.88.47l-1.18,4.35H83.3c-.39,0-.57.1-.57.44s.21.35.42.35h1.94Zm-12.65,2.79c0,1.69,1.42,2.69,3.57,2.69a4.3,4.3,0,0,0,4.69-4.38c0-1.1-.27-1.76-1.63-3.64-1.73-2.35-2-3.07-2-3.79a2,2,0,0,1,2.24-2.07c1,0,1.36.35,1.36,1.1s.18,1.07.76,1.07.76-.32.76-.85c0-1.1-1.18-1.91-2.73-1.91a3.77,3.77,0,0,0-4.08,3.79c0,1.19.24,2,2.15,4.64,1.21,1.69,1.45,2.25,1.45,3a2.57,2.57,0,0,1-2.79,2.41c-1.18,0-2.08-.5-2.08-1.35,0-.31.12-.62.12-.94a.89.89,0,0,0-.91-.91c-.52,0-.91.38-.91,1.1m-2.09-10c0,1.67-1.87,4.8-5.81,6.43,1.58-5.52,3.45-7.62,4.85-7.62.54,0,1,.41,1,1.19m-8.68,9c0,2.19,1.18,3.72,3.57,3.72,3,0,5.24-4.07,5.24-4.32s-.1-.31-.25-.31-.21.09-.36.31c-1.72,2.51-3.06,3.64-4.48,3.64-1,0-1.57-.73-1.57-2a11.8,11.8,0,0,1,.57-2.94c5.3-2,7.57-4.42,7.57-6.55A2.17,2.17,0,0,0,67.84,130c-3.94,0-8.05,6.48-8.05,10.75m-7.6,6c-.78,3.89-1.9,5.36-3.39,5.36-.81,0-1.54-.25-1.54-1.1,0-1.22-.39-1.75-1.21-1.75s-1.18.59-1.18,1.35c0,1,.94,2.19,3.63,2.19s5.6-1.29,7-8l3.94-18.9c.3-1.41,1-2.22,2.42-2.22.33,0,.45-.13.45-.35s-.27-.34-.57-.34c-1.24,0-2.46.09-3.7.09s-2.45-.09-3.69-.09c-.36,0-.57.09-.57.34s.18.35.51.35c1.82,0,2.24.5,2.24,1.16a14.78,14.78,0,0,1-.39,2.63Z" transform="translate(-17.87 -50.7)"/><path class="cls-3" d="M103.76,54c-1.18,1.83-1.27,3.22-1.71,3.22-.16,0-1-2.16-2.29-3.77-1.55-1.95-3-3.25-3.74-2.43-.61.64.19,3.67,2.67,6.86a26.09,26.09,0,0,0-3.3,0c-1.87.19-3.88.86-4.06,1.55-.22.87,1.37,1.75,4.42,2,1,.08,2.25-.14,3.62-.14.31,0-.69,1.11-1.47,2.69-.91,1.82-2,4.73-1.06,5.26,1.45.79,4.81-4.41,5.34-5.84.07-.19.72,1.92,2.1,3.25s3.29,2.86,4.36,2.38c.54-.24.07-2.63-1.46-4.71-.94-1.28-2.71-2.6-2.55-3s1.42.65,3.92.49c1.81-.12,3.73-.39,4.51-.93,1.78-1.25-1.41-2.2-4.47-2.44-1.69-.13-3.32.38-4.08.26-.36-.05,1.35-1,2.48-3s1.76-4.45.74-4.85-3,1.78-4,3.21" transform="translate(-17.87 -50.7)"/><path class="cls-3" d="M103.75,54c-1.18,1.83-1.27,3.22-1.72,3.22-.16,0-1-2.16-2.28-3.77-1.55-1.95-3-3.25-3.74-2.43-.61.64.19,3.67,2.66,6.86a25.89,25.89,0,0,0-3.29,0c-1.87.19-3.89.86-4.06,1.55-.22.87,1.37,1.75,4.42,2,1,.08,2.25-.14,3.62-.14.31,0-.69,1.11-1.47,2.69-.91,1.82-2,4.73-1.07,5.26,1.45.79,4.82-4.41,5.35-5.84.07-.19.72,1.92,2.09,3.25s3.3,2.86,4.37,2.38c.54-.24.06-2.63-1.46-4.71-.94-1.28-2.71-2.6-2.56-3s1.43.65,3.92.49c1.82-.12,3.74-.39,4.52-.93,1.78-1.25-1.41-2.2-4.48-2.44-1.68-.13-3.31.38-4.08.26-.35-.05,1.36-1,2.49-3s1.76-4.45.74-4.85-3,1.78-4,3.21" transform="translate(-17.87 -50.7)"/><path class="cls-4" d="M102.4,157.68c1-.12,1.65,7.84,8.46,11.45,0,0,9.63-8,13.52-6.49.14.05.34.53-.31,1.2a21,21,0,0,0-6,13.42c-.58,10.48-.2,12.77-9.69,16-1.67.57-1.65.83-1.65,2.77,0,0-.06,1.06,1.8,1.26s7-.08,7.66.57.65,2,.48,3.46c-.24,2.11-10.81,1.65-14.3,1.65s-13.74.84-14.27-1.36c-.35-1.5-.14-3.18.48-3.83s5.78-.39,7.64-.58,1.8-1.25,1.8-1.25c0-1.95,0-2.2-1.66-2.77-9.45-3.21-9.07-5.49-9.65-16a21,21,0,0,0-5.95-13.38c-.65-.67-.46-1.15-.31-1.2C84.36,161.1,94,169.11,94,169.11c6.78-3.6,7.45-11.43,8.44-11.43" transform="translate(-17.87 -50.7)"/><path class="cls-3" d="M182.07,103c0,2.41-.58,3.26-1.91,3.29-1,0-1.06.09-1.06.34s.18.35.58.35c1,0,2.6-.1,4-.1s3,.1,4,.1c.39,0,.57-.06.57-.35s-.09-.31-1.06-.34c-1.33,0-1.91-.88-1.91-3.29V87.29c0-.47.19-.6,4.67-.6,2.11,0,3.75.38,3.9,2.73.06,1,.21,1.1.45,1.1s.24-.13.24-.41V86.29c0-.29-.09-.47-.51-.47H173.32c-.42,0-.51.18-.51.47v3.82c0,.28.06.41.24.41s.39-.1.45-1.1c.15-2.35,1.79-2.73,3.91-2.73,4.48,0,4.66.13,4.66.6ZM166.88,89.89c0-1.5.12-3.26,2-3.32.91,0,1.06-.1,1.06-.38s-.18-.37-.45-.37c-.76,0-1.45.09-2.94.09s-2.3-.09-3-.09c-.34,0-.52.09-.52.37s.34.35,1.24.38c1.88.06,1.88,1.82,1.88,3.32v8.3c0,3.61-.42,8.12-6.45,8.12-3.11,0-5.93-1.22-5.93-5.83V89.83c0-2.45.67-3.29,2-3.32,1,0,1.06-.1,1.06-.35s-.18-.34-.58-.34c-1,0-2.6.09-4,.09s-3-.09-4-.09c-.4,0-.58.06-.58.34s.09.31,1.06.35c1.36,0,1.94.87,1.94,3.32v10.84c0,4.7,3.14,6.8,7.83,6.8,6.51,0,8.39-3.39,8.39-8.24Zm-41.22,7c0,6.92,4.63,10.56,10.32,10.56a9.72,9.72,0,0,0,4.87-1.19,9,9,0,0,1,4.33-1.57c-.09-1.5-.12-2.51-.12-2.91,0-1.48.06-2.76,1.6-2.92.36,0,.58-.06.58-.4s-.15-.29-.46-.29c-1.15,0-2.3.1-3.45.1-1.3,0-2.63-.1-3.93-.1-.18,0-.42,0-.42.38s.09.31.93.38c1.82.12,1.88,1.25,1.88,3,0,4-3,4.8-5.54,4.8-2.78,0-6.84-1.94-6.84-10.09,0-6.17,1.91-10.65,7.48-10.65,4.42,0,5.32,2.94,5.87,4.79.27.91.3,1.13.6,1.13s.28-.19.31-.88c0-1.54.12-3.85.12-4.64,0-.4-.06-.56-.28-.56s-.42.5-.51.78a.41.41,0,0,1-.42.32.94.94,0,0,1-.46-.16,11.32,11.32,0,0,0-5.84-1.47c-6.38,0-10.62,5.13-10.62,11.56M98.91,89a2.72,2.72,0,0,1,2.63-3c1.36,0,2.6,1.28,2.6,3.82a6.3,6.3,0,0,1-2.78,5.32c-1.85-2.63-2.45-4.54-2.45-6.17m-2.12,13c0-1.78,1-3.19,2.85-4.41a67.15,67.15,0,0,0,4.81,6.17,5.62,5.62,0,0,1-4.21,2.26c-2.06,0-3.45-2-3.45-4m-2.66,1.41c0,2.29,1.75,4.08,4.63,4.08a8.66,8.66,0,0,0,6.26-3.14c2.21,2.57,4.12,3.14,5.45,3.14,2.75,0,4.36-2.16,4.36-2.67,0-.28-.15-.37-.28-.37-.69,0-1,1.35-2.51,1.35-1,0-2.6-1-5.14-3.83,2.39-3,3-6.3,4.2-6.3a.54.54,0,0,1,.55.6c0,.25-.06.28-.06.69a1.28,1.28,0,0,0,1.33,1.19,1.57,1.57,0,0,0,1.57-1.69,2.07,2.07,0,0,0-2.24-2.26c-1.36,0-2.08.44-3.32,2.79a26.7,26.7,0,0,1-2.61,4.33c-1.57-1.73-3-3.55-4.41-5.39,3.72-2.92,4.23-4.61,4.23-6.52a3.9,3.9,0,0,0-4.14-4c-2.27,0-4.91,1.84-4.91,5.76a11,11,0,0,0,2.15,5.74c-4.17,2.91-5.11,4.32-5.11,6.54M72,103c0,2.41-.58,3.26-1.91,3.29-1,0-1.06.09-1.06.34s.18.35.58.35c1,0,2.6-.1,4-.1s3,.1,4.24.1c.39,0,.57-.06.57-.35s-.09-.31-1.06-.34c-1.6,0-2.17-.88-2.17-3.29V96.66h1.75a2.78,2.78,0,0,1,3.15,2.54c.18.94.3,1.06.51,1.06s.34-.12.34-.37c0-1.32-.1-2.61-.1-3.92,0-1,.1-2.29.1-3.61,0-.25-.13-.37-.4-.37s-.39.16-.45,1c-.15,2.29-1.33,2.85-4.9,2.85v-6.8c0-2.09,0-2.47,1.21-2.47h2.21c2.26,0,3.44.38,4.26,1a4.59,4.59,0,0,1,1.33,2.32c0,.19.15.47.4.47s.36,0,.36-.41c0-.75-.33-3-.39-3.66,0-.35-.18-.47-.61-.47-3.39,0-6.78.09-10.17.09-1.54,0-3.14-.09-4.14-.09-.4,0-.58.06-.58.34s.09.31,1.06.35c1.33,0,1.91.87,1.91,3.29ZM47.47,96.41c0-5,2.36-10.37,7.5-10.37s7.51,5.32,7.51,10.37S60.12,106.78,55,106.78s-7.5-5.33-7.5-10.37m-3.76,0c0,6.48,4.69,11.06,11.26,11.06s11.26-4.58,11.26-11.06S61.54,85.35,55,85.35,43.71,89.92,43.71,96.41M35.09,103c0,2.41-.58,3.26-1.91,3.29-1,0-1.06.09-1.06.34s.19.35.58.35c1,0,2.6-.1,4-.1s3,.1,4,.1c.39,0,.57-.06.57-.35s-.09-.31-1.06-.34c-1.33,0-1.9-.88-1.9-3.29V89.8c0-2.42.57-3.26,1.9-3.29,1,0,1.06-.1,1.06-.35s-.18-.34-.57-.34c-1,0-2.61.09-4,.09s-3-.09-4-.09c-.39,0-.58.06-.58.34s.09.31,1.06.35c1.33,0,1.91.87,1.91,3.29v5.73H24V89.8c0-2.42.58-3.26,1.91-3.29,1,0,1.06-.1,1.06-.35s-.18-.34-.58-.34c-1,0-2.6.09-4,.09s-3-.09-4-.09c-.4,0-.58.06-.58.34s.09.31,1.06.35c1.33,0,1.91.87,1.91,3.29V103c0,2.41-.58,3.26-1.91,3.29-1,0-1.06.09-1.06.34s.18.35.58.35c1,0,2.6-.1,4-.1s3,.1,4,.1c.4,0,.58-.06.58-.35s-.09-.31-1.06-.34c-1.33,0-1.91-.88-1.91-3.29V96.53H35.09Z" transform="translate(-17.87 -50.7)"/></g></g></svg>